<svg id="Send" xmlns="http://www.w3.org/2000/svg" width="20" height="20" viewBox="0 0 20 20">
  <g id="Iconly_Bold_Send" data-name="Iconly/Bold/Send">
    <g id="Send-2" data-name="Send" transform="translate(1.667 1.667)">
      <path id="Send-3" data-name="Send" d="M16.2.485A1.611,1.611,0,0,0,14.587.066L1.173,3.966A1.6,1.6,0,0,0,.02,5.234,1.878,1.878,0,0,0,.856,6.986L5.05,9.564A1.087,1.087,0,0,0,6.391,9.4l4.8-4.833a.612.612,0,0,1,.884,0,.636.636,0,0,1,0,.889L7.267,10.293a1.1,1.1,0,0,0-.161,1.349l2.563,4.236a1.592,1.592,0,0,0,1.384.789,1.732,1.732,0,0,0,.208-.008A1.625,1.625,0,0,0,12.62,15.5L16.6,2.1A1.637,1.637,0,0,0,16.2.485" fill="#a8a8a8"/>
    </g>
  </g>
</svg>
