<svg xmlns="http://www.w3.org/2000/svg" width="20" height="20" viewBox="0 0 20 20">
  <g id="Iconly_Light-outline_Search" data-name="Iconly/Light-outline/Search" transform="translate(0 0)">
    <g id="Search">
      <path id="Search-2" data-name="Search" d="M0,10.6A9.518,9.518,0,0,1,9.611,1.2a9.7,9.7,0,0,1,6,2.06L18.737.212l.083-.07a.753.753,0,0,1,.964.071.713.713,0,0,1,0,1.024L16.692,4.251A9.25,9.25,0,0,1,19.223,10.6,9.518,9.518,0,0,1,9.611,20,9.518,9.518,0,0,1,0,10.6Zm1.48,0a8.052,8.052,0,0,0,8.131,7.951A8.052,8.052,0,0,0,17.743,10.6,8.052,8.052,0,0,0,9.611,2.649,8.052,8.052,0,0,0,1.48,10.6Z" transform="translate(20 20) rotate(180)" fill="#97aabd"/>
    </g>
  </g>
</svg>
