<svg id="Iconly_Bulk_Voice" data-name="Iconly/Bulk/Voice" xmlns="http://www.w3.org/2000/svg" width="24" height="24" viewBox="0 0 24 24">
  <g id="Voice" transform="translate(3.5 2)">
    <path id="Fill_1" data-name="Fill 1" d="M16.031,0a.962.962,0,0,0-.969.957,6.563,6.563,0,0,1-13.125,0A.962.962,0,0,0,.969,0,.962.962,0,0,0,0,.957,8.443,8.443,0,0,0,7.532,9.293v1.925a.969.969,0,0,0,1.937,0V9.293A8.443,8.443,0,0,0,17,.957.962.962,0,0,0,16.031,0" transform="translate(0 7.826)" fill="#97aabd" opacity="0.4"/>
    <path id="Fill_4" data-name="Fill 4" d="M4.351,13.217H4.7a4.325,4.325,0,0,0,4.351-4.3V4.3A4.324,4.324,0,0,0,4.7,0H4.351A4.324,4.324,0,0,0,0,4.3V8.921a4.325,4.325,0,0,0,4.351,4.3" transform="translate(3.973 0)" fill="#97aabd"/>
  </g>
</svg>
