<svg xmlns="http://www.w3.org/2000/svg" width="14.193" height="13.526" viewBox="0 0 14.193 13.526">
  <g id="Iconly_Light_Heart" data-name="Iconly/Light/Heart" transform="translate(0.763 0.776)">
    <g id="Heart" transform="translate(0)">
      <path id="Path_33961" d="M6.174,11.9A23.226,23.226,0,0,1,2.16,8.777,7.994,7.994,0,0,1,.249,5.73,4.243,4.243,0,0,1,2.714.192,3.985,3.985,0,0,1,6.331.8h0A3.991,3.991,0,0,1,9.947.192,4.246,4.246,0,0,1,12.419,5.73a7.994,7.994,0,0,1-1.911,3.047A23.226,23.226,0,0,1,6.493,11.9l-.157.1Z" transform="translate(0 0)" fill="none" stroke="#fff" stroke-linecap="round" stroke-linejoin="round" stroke-miterlimit="10" stroke-width="1.5"/>
    </g>
  </g>
</svg>
